<?xml version="1.0" encoding="utf-8"?>
<!-- Generator: Adobe Illustrator 17.0.0, SVG Export Plug-In . SVG Version: 6.00 Build 0)  -->
<!DOCTYPE svg PUBLIC "-//W3C//DTD SVG 1.1//EN" "http://www.w3.org/Graphics/SVG/1.1/DTD/svg11.dtd">
<svg version="1.1" id="Layer_1" xmlns="http://www.w3.org/2000/svg" xmlns:xlink="http://www.w3.org/1999/xlink" x="0px" y="0px"
	 width="300px" height="300px" viewBox="0 0 300 300" enable-background="new 0 0 300 300" xml:space="preserve">
<path fill="#363A42" d="M297.5,272.671c0,13.713-11.116,24.829-24.829,24.829H27.329C13.616,297.5,2.5,286.384,2.5,272.671V27.329
	C2.5,13.616,13.616,2.5,27.329,2.5h245.342c13.713,0,24.829,11.116,24.829,24.829V272.671z"/>
<g id="_x36_f3qC2.tif">
	<g>
		<path fill="#FFFFFF" d="M79.388,224.729c0-25.191,0-50.379,0-75.569c0.112-0.18,0.273-0.345,0.333-0.543
			c1.813-6.153,5.828-9.228,12.213-9.333c1.063-0.018,2.125-0.002,3.425-0.002c0-4.81-0.075-9.353,0.018-13.893
			c0.13-6.288-0.24-12.668,0.698-18.843c5.04-33.233,42.173-58.816,79.017-40.978c18.69,9.048,29.653,24.636,31.138,45.836
			c0.585,8.358,0.233,16.78,0.308,25.176c0.008,0.84,0,1.683,0,2.735c1.653,0,3.02-0.065,4.378,0.01
			c6.533,0.365,11.375,5.158,11.393,11.613c0.065,24.031,0.058,48.061,0,72.092c-0.012,5.54-3.655,9.87-9.078,11.268
			c-0.33,0.085-0.633,0.277-0.948,0.418c-40.823,0-81.649,0-122.473,0C84.313,233.497,80.878,230.129,79.388,224.729z
			 M119.339,139.092c21.13,0,42.181,0,63.366,0c0-7.845,0.025-15.5-0.005-23.156c-0.07-17.245-12.095-30.406-29.278-32.081
			c-17.295-1.685-33.288,11.865-34.093,29.213c-0.388,8.37-0.122,16.773-0.145,25.158
			C119.184,138.5,119.279,138.772,119.339,139.092z M143.687,185.271c-2.805,9.325-5.563,18.448-8.285,27.581
			c-1.083,3.633,0.533,5.813,4.288,5.823c7.308,0.018,14.618,0.01,21.925,0.005c4.438-0.003,5.948-1.978,4.69-6.185
			c-2.463-8.235-4.903-16.478-7.458-24.683c-0.56-1.8-0.455-2.783,1.318-3.998c6.208-4.258,8.315-12.29,5.333-19.083
			c-3.035-6.918-10.433-10.735-17.815-9.195c-7.403,1.545-12.695,7.955-12.653,15.51
			C135.064,177.405,138.209,181.993,143.687,185.271z"/>
	</g>
</g>
</svg>
