<?xml version="1.0" encoding="utf-8"?>
<!-- Generator: Adobe Illustrator 17.0.0, SVG Export Plug-In . SVG Version: 6.00 Build 0)  -->
<!DOCTYPE svg PUBLIC "-//W3C//DTD SVG 1.1//EN" "http://www.w3.org/Graphics/SVG/1.1/DTD/svg11.dtd">
<svg version="1.1" id="Layer_1" xmlns="http://www.w3.org/2000/svg" xmlns:xlink="http://www.w3.org/1999/xlink" x="0px" y="0px"
	 width="300px" height="300px" viewBox="0 0 300 300" enable-background="new 0 0 300 300" xml:space="preserve">
<path fill="#363A42" d="M297.5,272.671c0,13.713-11.116,24.829-24.829,24.829H27.329C13.616,297.5,2.5,286.384,2.5,272.671V27.329
	C2.5,13.616,13.616,2.5,27.329,2.5h245.342c13.713,0,24.829,11.116,24.829,24.829V272.671z"/>
<g id="C6GKla.tif">
	<g>
		<path fill="#FFFFFF" d="M115.39,62.814c23.417,0,46.837,0,70.254,0c1.317,0.245,2.655,0.42,3.952,0.745
			c7.997,2.005,13.32,8.965,13.332,17.59c0.033,23.657,0.012,47.315,0.012,70.972c0,22.622,0.04,45.242-0.02,67.865
			c-0.028,10.282-7.587,17.785-17.827,17.8c-23.18,0.033-46.357,0.048-69.537-0.01c-9.652-0.025-17.375-7.65-17.385-17.265
			c-0.05-46.757-0.042-93.512,0-140.269c0.007-7.707,5.347-14.46,12.815-16.527C112.425,63.312,113.92,63.109,115.39,62.814z
			 M189.902,150.666c0-15.53,0.003-31.062-0.002-46.592c0-4.625-1.378-6.045-5.935-6.047c-22.3-0.01-44.602-0.01-66.902,0
			c-4.442,0.003-5.88,1.45-5.88,5.867c-0.005,31.062-0.005,62.122,0,93.184c0,4.302,1.467,5.78,5.702,5.782
			c22.38,0.005,44.76,0.003,67.14,0c4.452,0,5.872-1.41,5.872-5.842C189.905,181.568,189.902,166.116,189.902,150.666z
			 M161.417,220.486c0.058-6.12-4.67-10.95-10.755-10.982c-6.162-0.035-10.945,4.645-10.985,10.745
			c-0.04,6.142,4.647,10.945,10.747,11.002C156.532,231.306,161.357,226.581,161.417,220.486z M150.577,84.857
			c3.412,0,6.827-0.025,10.24,0.01c1.505,0.015,2.762-0.235,2.81-2.075c0.045-1.777-1.077-2.282-2.642-2.28
			c-6.985,0.012-13.97,0.012-20.955,0.002c-1.465-0.002-2.542,0.492-2.577,2.115c-0.037,1.757,1.048,2.265,2.65,2.242
			C143.593,84.824,147.085,84.857,150.577,84.857z"/>
	</g>
</g>
</svg>
