<?xml version="1.0" encoding="utf-8"?>
<!-- Generator: Adobe Illustrator 17.0.0, SVG Export Plug-In . SVG Version: 6.00 Build 0)  -->
<!DOCTYPE svg PUBLIC "-//W3C//DTD SVG 1.1//EN" "http://www.w3.org/Graphics/SVG/1.1/DTD/svg11.dtd">
<svg version="1.1" id="Layer_1" xmlns="http://www.w3.org/2000/svg" xmlns:xlink="http://www.w3.org/1999/xlink" x="0px" y="0px"
	 width="300px" height="300px" viewBox="0 0 300 300" enable-background="new 0 0 300 300" xml:space="preserve">
<circle fill="#363A42" cx="150" cy="150" r="140"/>
<g>
	<path fill="#FFFFFF" d="M116.435,172.048c0-3.071,0.144-6.105,0.439-9.104c0.291-2.996,1.021-5.848,2.193-8.556
		c1.169-2.704,2.924-5.3,5.265-7.788c2.338-2.485,5.484-4.751,9.434-6.801c1.607-0.877,3.911-2.046,6.91-3.51
		c2.996-1.46,5.995-3.215,8.995-5.266c2.996-2.046,5.594-4.349,7.788-6.91c2.194-2.557,3.291-5.375,3.291-8.446
		c0-3.362-1.316-6.033-3.949-8.007c-2.632-1.974-5.704-2.961-9.214-2.961c-2.632,0-4.901,0.514-6.8,1.536
		c-1.903,1.025-3.548,2.269-4.936,3.729c-1.392,1.463-2.561,2.961-3.51,4.497c-0.953,1.536-1.865,2.818-2.742,3.839l-26.544-18.867
		c3.801-8.919,9.796-15.867,17.989-20.841c8.189-4.97,17.55-7.459,28.08-7.459c5.557,0,11.188,0.806,16.892,2.414
		c5.704,1.611,10.859,4.168,15.467,7.678c4.606,3.51,8.336,8.117,11.188,13.82c2.853,5.704,4.278,12.652,4.278,20.841
		c0,7.021-1.282,13.42-3.839,19.195c-2.561,5.779-7.13,10.859-13.711,15.247c-3.219,2.193-6.51,4.097-9.873,5.704
		c-3.366,1.61-6.472,3.219-9.324,4.827c-2.852,1.611-5.193,3.291-7.02,5.046c-1.831,1.755-2.742,3.805-2.742,6.143H116.435z
		 M117.093,228.866v-35.978h34.003v35.978H117.093z"/>
</g>
</svg>
