<?xml version="1.0" encoding="utf-8"?>
<!-- Generator: Adobe Illustrator 17.0.0, SVG Export Plug-In . SVG Version: 6.00 Build 0)  -->
<!DOCTYPE svg PUBLIC "-//W3C//DTD SVG 1.1//EN" "http://www.w3.org/Graphics/SVG/1.1/DTD/svg11.dtd">
<svg version="1.1" id="Layer_1" xmlns="http://www.w3.org/2000/svg" xmlns:xlink="http://www.w3.org/1999/xlink" x="0px" y="0px"
	 width="300px" height="300px" viewBox="0 0 300 300" enable-background="new 0 0 300 300" xml:space="preserve">
<path fill="#363A42" d="M297.5,272.671c0,13.713-11.116,24.829-24.829,24.829H27.329C13.616,297.5,2.5,286.384,2.5,272.671V27.329
	C2.5,13.616,13.616,2.5,27.329,2.5h245.342c13.713,0,24.829,11.116,24.829,24.829V272.671z"/>
<g id="cKLf24.tif">
	<g>
		<path fill="#FFFFFF" d="M150.871,238.388c-48.446,0.205-87.511-39.743-87.37-87.662c0.142-48.278,39.701-87.358,87.629-87.267
			c48.456,0.092,87.511,39.807,87.371,87.726C238.359,199.498,198.742,238.785,150.871,238.388z M135.558,130.821
			c-0.008,0-0.017,0-0.025,0.001c0.347,11.553,0.69,23.106,1.044,34.658c0.072,2.346,1.099,3.623,3.502,3.659
			c7.239,0.109,14.481,0.104,21.72,0.004c2.269-0.031,3.496-1.409,3.557-3.485c0.674-22.973,1.341-45.947,1.994-68.921
			c0.08-2.827-1.03-4.023-3.902-4.039c-8.303-0.046-16.607-0.047-24.911,0.001c-2.876,0.017-3.959,1.201-3.886,4.057
			C134.939,108.112,135.253,119.466,135.558,130.821z M151.114,209.233c3.385,0,6.77,0.015,10.155-0.004
			c3.01-0.017,4.289-1.192,4.313-4.196c0.054-6.902,0.054-13.805-0.001-20.707c-0.023-2.946-1.394-4.224-4.329-4.231
			c-6.77-0.018-13.541-0.019-20.311,0.001c-2.955,0.009-4.496,1.447-4.516,4.346c-0.047,6.836-0.048,13.673,0,20.51
			c0.02,2.853,1.488,4.25,4.335,4.275C144.212,209.256,147.663,209.233,151.114,209.233z"/>
	</g>
</g>
</svg>
