<?xml version="1.0" encoding="utf-8"?>
<!-- Generator: Adobe Illustrator 17.0.0, SVG Export Plug-In . SVG Version: 6.00 Build 0)  -->
<!DOCTYPE svg PUBLIC "-//W3C//DTD SVG 1.1//EN" "http://www.w3.org/Graphics/SVG/1.1/DTD/svg11.dtd">
<svg version="1.1" id="Layer_1" xmlns="http://www.w3.org/2000/svg" xmlns:xlink="http://www.w3.org/1999/xlink" x="0px" y="0px"
	 width="300px" height="300px" viewBox="0 0 300 300" enable-background="new 0 0 300 300" xml:space="preserve">
<path fill="#363A42" d="M297.365,272.471c0,13.713-11.116,24.829-24.829,24.829H27.194c-13.713,0-24.829-11.116-24.829-24.829
	V27.129C2.365,13.416,13.481,2.3,27.194,2.3h245.342c13.713,0,24.829,11.116,24.829,24.829V272.471z"/>
<g id="OKGZHq.tif">
	<g>
		<path fill="#FFFFFF" d="M45.134,254.689c-0.033-4.996-0.09-9.996-0.093-14.992c-0.012-13.545-0.042-27.093,0.06-40.638
			c0.009-1.198,0.593-2.696,1.432-3.538c37.293-37.4,74.642-74.741,111.988-112.084c0.452-0.452,0.941-0.872,1.258-1.165
			c19.114,19.135,38.179,38.218,57.934,57.991c-0.491,0.279-1.507,0.593-2.172,1.258c-37.029,36.978-74.031,73.983-111.024,110.997
			c-0.659,0.659-1.195,1.444-1.788,2.172C83.531,254.689,64.334,254.689,45.134,254.689z M75.102,191.93
			c-3.834,3.825-7.776,7.74-11.685,11.691c-0.365,0.368-0.716,0.956-0.722,1.447c-0.054,4.574-0.033,9.151-0.033,14.036
			c6.045,0,11.811,0,17.852,0c0,6.066,0,11.82,0,17.679c3.343,0,6.428-0.252,9.456,0.063c3.792,0.395,6.524-0.836,8.986-3.726
			c2.69-3.154,5.829-5.925,8.615-8.705C96.624,213.457,85.916,202.746,75.102,191.93z M167.624,108.889
			c-0.285-2.196-1.027-3.564-2.786-3.28c-1.303,0.21-2.741,0.917-3.675,1.848c-24.329,24.224-48.6,48.507-72.878,72.782
			c-0.455,0.455-1.204,0.893-1.27,1.411c-0.183,1.396-0.602,3.184,0.048,4.17c0.985,1.489,2.831,1.207,4.295,0.123
			c0.512-0.38,0.935-0.884,1.393-1.339c15.217-15.214,30.433-30.427,45.647-45.644c9.118-9.118,18.245-18.227,27.327-27.381
			C166.579,110.713,167.154,109.569,167.624,108.889z"/>
		<path fill="#FFFFFF" d="M254.703,95.94c-0.566,6.761-4.667,11.358-9.319,15.768c-5.79,5.494-11.341,11.245-16.96,16.918
			c-0.617,0.623-1.003,1.477-1.408,2.091c-19.584-19.587-38.673-38.676-57.844-57.85c3.136-3.148,6.365-6.401,9.609-9.636
			c4.283-4.271,8.543-8.57,12.877-12.787c7.512-7.315,17.772-7.411,25.29-0.075c8.893,8.672,17.628,17.505,26.434,26.267
			c0.629,0.626,1.225,1.288,1.89,1.875c4.859,4.316,8.83,9.151,9.429,15.977C254.703,94.972,254.703,95.454,254.703,95.94z"/>
	</g>
</g>
</svg>
