<?xml version="1.0" encoding="utf-8"?>
<!-- Generator: Adobe Illustrator 17.0.0, SVG Export Plug-In . SVG Version: 6.00 Build 0)  -->
<!DOCTYPE svg PUBLIC "-//W3C//DTD SVG 1.1//EN" "http://www.w3.org/Graphics/SVG/1.1/DTD/svg11.dtd">
<svg version="1.1" id="Layer_1" xmlns="http://www.w3.org/2000/svg" xmlns:xlink="http://www.w3.org/1999/xlink" x="0px" y="0px"
	 width="76px" height="76px" viewBox="0 0 76 76" enable-background="new 0 0 76 76" xml:space="preserve">
<g>
	<polygon fill="#363A42" points="42.92,74.166 4.411,62.938 4.411,12.394 42.92,1.166 	"/>
	<g>
		<polygon fill="#363A42" points="44.902,13.102 44.902,19.473 61.892,19.473 61.892,22.305 44.902,22.305 44.902,26.21 
			61.892,26.21 61.892,29.042 44.902,29.042 44.902,32.947 61.892,32.947 61.892,35.779 44.902,35.779 44.902,39.684 61.892,39.684 
			61.892,42.516 44.902,42.516 44.902,46.421 61.892,46.421 61.892,49.253 44.902,49.253 44.902,53.158 61.892,53.158 61.892,55.99 
			44.902,55.99 44.902,62.796 68.263,62.796 68.263,13.102 		"/>
	</g>
</g>
</svg>
